<svg xmlns="http://www.w3.org/2000/svg" xmlns:xlink="http://www.w3.org/1999/xlink" width="500" zoomAndPan="magnify" viewBox="0 0 375 374.999991" height="500" preserveAspectRatio="xMidYMid meet" version="1.0"><defs><g/><clipPath id="5843a944ad"><path d="M 178 124.289062 L 272 124.289062 L 272 250.710938 L 178 250.710938 Z M 178 124.289062 " clip-rule="nonzero"/></clipPath></defs><rect x="-37.5" width="450" fill="#ffffff" y="-37.499999" height="449.999989" fill-opacity="1"/><rect x="-37.5" width="450" fill="#ffffff" y="-37.499999" height="449.999989" fill-opacity="1"/><rect x="-37.5" width="450" fill="#ffffff" y="-37.499999" height="449.999989" fill-opacity="1"/><g clip-path="url(#5843a944ad)"><path fill="#1c2120" d="M 178 124.289062 L 271.910156 124.289062 L 271.910156 251.195312 L 178 251.195312 Z M 178 124.289062 " fill-opacity="1" fill-rule="nonzero"/></g><g fill="#1c2120" fill-opacity="1"><g transform="translate(144.18732, 230.812367)"><g><path d="M 15.9375 -6.671875 C 15.976562 -6.660156 16.03125 -6.628906 16.09375 -6.578125 C 16.164062 -6.523438 16.207031 -6.460938 16.21875 -6.390625 C 16.238281 -6.316406 16.195312 -6.25 16.09375 -6.1875 C 15.425781 -5.832031 14.617188 -5.6875 13.671875 -5.75 C 12.722656 -5.8125 11.96875 -6.117188 11.40625 -6.671875 C 11.375 -6.390625 11.332031 -6.113281 11.28125 -5.84375 C 11.1875 -5.25 11.097656 -4.675781 11.015625 -4.125 C 10.890625 -3.5 10.671875 -2.898438 10.359375 -2.328125 C 9.953125 -1.660156 9.425781 -1.21875 8.78125 -1 C 8.132812 -0.789062 7.523438 -0.757812 6.953125 -0.90625 C 6.347656 -1.03125 5.859375 -1.328125 5.484375 -1.796875 C 5.316406 -2.003906 5.160156 -2.210938 5.015625 -2.421875 C 4.953125 -2.515625 4.890625 -2.609375 4.828125 -2.703125 C 4.671875 -2.679688 4.546875 -2.628906 4.453125 -2.546875 C 4.367188 -2.460938 4.289062 -2.378906 4.21875 -2.296875 C 4.144531 -2.203125 4.066406 -2.132812 3.984375 -2.09375 C 3.359375 -1.644531 2.734375 -1.492188 2.109375 -1.640625 C 1.492188 -1.796875 1.023438 -2.210938 0.703125 -2.890625 C 0.554688 -3.210938 0.445312 -3.539062 0.375 -3.875 C 0.21875 -4.550781 0.113281 -5.21875 0.0625 -5.875 C 0.0195312 -6.53125 0.0078125 -7.203125 0.03125 -7.890625 C 0.0625 -8.304688 0.21875 -8.570312 0.5 -8.6875 C 0.78125 -8.8125 1.054688 -8.796875 1.328125 -8.640625 C 1.609375 -8.492188 1.765625 -8.207031 1.796875 -7.78125 C 1.816406 -7.488281 1.828125 -7.203125 1.828125 -6.921875 C 1.804688 -5.878906 1.921875 -4.859375 2.171875 -3.859375 C 2.242188 -3.617188 2.328125 -3.394531 2.421875 -3.1875 C 2.472656 -3.082031 2.546875 -3.023438 2.640625 -3.015625 C 2.742188 -3.003906 2.832031 -3.050781 2.90625 -3.15625 C 3.175781 -3.53125 3.378906 -3.9375 3.515625 -4.375 C 3.648438 -4.820312 3.769531 -5.273438 3.875 -5.734375 C 3.875 -5.796875 3.878906 -5.847656 3.890625 -5.890625 C 3.921875 -6.085938 3.96875 -6.296875 4.03125 -6.515625 C 4.0625 -6.785156 4.113281 -7.054688 4.1875 -7.328125 C 4.3125 -7.773438 4.660156 -7.960938 5.234375 -7.890625 C 5.710938 -7.859375 5.96875 -7.617188 6 -7.171875 C 6 -6.128906 6.109375 -5.109375 6.328125 -4.109375 C 6.410156 -3.742188 6.515625 -3.390625 6.640625 -3.046875 C 6.773438 -2.710938 6.976562 -2.398438 7.25 -2.109375 C 7.53125 -1.835938 7.828125 -1.835938 8.140625 -2.109375 C 8.585938 -2.546875 8.878906 -3.046875 9.015625 -3.609375 C 9.378906 -4.742188 9.546875 -5.910156 9.515625 -7.109375 C 9.515625 -7.191406 9.515625 -7.28125 9.515625 -7.375 C 9.472656 -7.875 9.460938 -8.363281 9.484375 -8.84375 C 9.503906 -9.53125 9.867188 -9.789062 10.578125 -9.625 C 10.742188 -9.59375 10.894531 -9.539062 11.03125 -9.46875 C 11.164062 -9.394531 11.265625 -9.257812 11.328125 -9.0625 C 11.890625 -7.84375 12.472656 -7.054688 13.078125 -6.703125 C 13.679688 -6.347656 14.234375 -6.210938 14.734375 -6.296875 C 15.234375 -6.390625 15.597656 -6.5 15.828125 -6.625 C 15.867188 -6.644531 15.90625 -6.660156 15.9375 -6.671875 Z M 15.9375 -6.671875 "/></g></g></g><g fill="#1c2120" fill-opacity="1"><g transform="translate(159.06537, 230.812367)"><g><path d="M 10.859375 -5.84375 C 11.023438 -5.9375 11.1875 -6.003906 11.34375 -6.046875 C 11.507812 -6.085938 11.613281 -6.082031 11.65625 -6.03125 C 11.707031 -5.976562 11.644531 -5.84375 11.46875 -5.625 C 10.882812 -4.976562 10.203125 -4.390625 9.421875 -3.859375 C 8.648438 -3.335938 7.863281 -2.890625 7.0625 -2.515625 C 6.414062 -2.234375 5.734375 -2.003906 5.015625 -1.828125 C 4.296875 -1.660156 3.585938 -1.625 2.890625 -1.71875 C 2.191406 -1.820312 1.554688 -2.132812 0.984375 -2.65625 C 0.304688 -3.332031 -0.0625 -4.195312 -0.125 -5.25 C -0.1875 -6.3125 0.0546875 -7.195312 0.609375 -7.90625 C 1.335938 -8.726562 2.257812 -9.253906 3.375 -9.484375 C 4.5 -9.722656 5.507812 -9.546875 6.40625 -8.953125 C 6.84375 -8.660156 7.019531 -8.3125 6.9375 -7.90625 C 6.851562 -7.5 6.632812 -7.117188 6.28125 -6.765625 C 5.9375 -6.421875 5.546875 -6.160156 5.109375 -5.984375 C 4.472656 -5.734375 3.898438 -5.679688 3.390625 -5.828125 C 2.878906 -5.984375 2.484375 -6.1875 2.203125 -6.4375 C 1.992188 -6.363281 1.863281 -6.078125 1.8125 -5.578125 C 1.6875 -4.640625 1.984375 -3.878906 2.703125 -3.296875 C 3.296875 -2.847656 4.039062 -2.722656 4.9375 -2.921875 C 5.84375 -3.128906 6.769531 -3.488281 7.71875 -4 C 8.664062 -4.507812 9.507812 -5 10.25 -5.46875 C 10.476562 -5.59375 10.679688 -5.71875 10.859375 -5.84375 Z M 4.9375 -8.203125 C 4.820312 -8.347656 4.644531 -8.40625 4.40625 -8.375 C 4.164062 -8.351562 3.914062 -8.28125 3.65625 -8.15625 C 3.394531 -8.03125 3.171875 -7.898438 2.984375 -7.765625 C 2.796875 -7.628906 2.710938 -7.535156 2.734375 -7.484375 C 2.734375 -7.453125 2.753906 -7.394531 2.796875 -7.3125 C 2.847656 -7.226562 2.914062 -7.140625 3 -7.046875 C 3.09375 -6.960938 3.210938 -6.898438 3.359375 -6.859375 C 3.515625 -6.828125 3.707031 -6.835938 3.9375 -6.890625 C 4.3125 -7.003906 4.570312 -7.144531 4.71875 -7.3125 C 4.875 -7.476562 4.960938 -7.644531 4.984375 -7.8125 C 5.003906 -7.976562 4.988281 -8.109375 4.9375 -8.203125 Z M 4.9375 -8.203125 "/></g></g></g><g fill="#1c2120" fill-opacity="1"><g transform="translate(169.403115, 230.812367)"><g><path d="M 3.421875 -33.84375 C 4.804688 -34.425781 6.046875 -34.320312 7.140625 -33.53125 C 8.242188 -32.738281 9.070312 -31.460938 9.625 -29.703125 C 10.175781 -27.941406 10.335938 -25.878906 10.109375 -23.515625 C 9.890625 -21.148438 9.148438 -18.6875 7.890625 -16.125 C 6.640625 -13.570312 4.753906 -11.09375 2.234375 -8.6875 C 2.054688 -8.53125 1.960938 -8.382812 1.953125 -8.25 C 1.941406 -8.125 1.953125 -7.992188 1.984375 -7.859375 C 2.003906 -7.773438 2.019531 -7.675781 2.03125 -7.5625 C 2.269531 -7.894531 2.585938 -8.253906 2.984375 -8.640625 C 3.390625 -9.035156 3.851562 -9.363281 4.375 -9.625 C 4.894531 -9.882812 5.453125 -9.972656 6.046875 -9.890625 C 6.648438 -9.804688 7.273438 -9.46875 7.921875 -8.875 C 8.410156 -8.375 8.710938 -7.722656 8.828125 -6.921875 C 8.941406 -6.117188 8.867188 -5.296875 8.609375 -4.453125 C 8.347656 -3.617188 7.894531 -2.914062 7.25 -2.34375 C 6.601562 -1.769531 5.757812 -1.476562 4.71875 -1.46875 C 4.0625 -1.476562 3.523438 -1.59375 3.109375 -1.8125 C 2.691406 -2.039062 2.375 -2.3125 2.15625 -2.625 C 1.9375 -2.9375 1.800781 -3.210938 1.75 -3.453125 C 1.789062 -3.285156 1.8125 -3.0625 1.8125 -2.78125 C 1.820312 -2.507812 1.78125 -2.257812 1.6875 -2.03125 C 1.601562 -1.8125 1.4375 -1.695312 1.1875 -1.6875 C 0.5625 -1.6875 0.238281 -2.007812 0.21875 -2.65625 C 0.207031 -3.289062 0.1875 -3.921875 0.15625 -4.546875 C 0.144531 -5.328125 0.128906 -6.09375 0.109375 -6.84375 C 0.0859375 -7.0625 0.078125 -7.300781 0.078125 -7.5625 C 0.0234375 -8.707031 -0.0234375 -10.269531 -0.078125 -12.25 C -0.128906 -14.226562 -0.132812 -16.367188 -0.09375 -18.671875 C -0.0625 -20.984375 0.0625 -23.222656 0.28125 -25.390625 C 0.507812 -27.566406 0.875 -29.414062 1.375 -30.9375 C 1.875 -32.46875 2.554688 -33.4375 3.421875 -33.84375 Z M 2.8125 -6.8125 C 2.726562 -6.6875 2.660156 -6.566406 2.609375 -6.453125 C 2.390625 -6.140625 2.257812 -5.867188 2.21875 -5.640625 C 2.1875 -5.421875 2.28125 -5.078125 2.5 -4.609375 C 2.726562 -4.078125 3.039062 -3.65625 3.4375 -3.34375 C 3.84375 -3.03125 4.285156 -2.921875 4.765625 -3.015625 C 5.242188 -3.109375 5.710938 -3.492188 6.171875 -4.171875 C 6.460938 -4.617188 6.640625 -5.144531 6.703125 -5.75 C 6.765625 -6.351562 6.679688 -6.910156 6.453125 -7.421875 C 6.222656 -7.941406 5.8125 -8.289062 5.21875 -8.46875 C 4.945312 -8.5625 4.660156 -8.554688 4.359375 -8.453125 C 4.066406 -8.359375 3.785156 -8.15625 3.515625 -7.84375 C 3.273438 -7.53125 3.039062 -7.1875 2.8125 -6.8125 Z M 1.9375 -9.71875 C 3.707031 -11.75 5.222656 -14.023438 6.484375 -16.546875 C 7.753906 -19.066406 8.503906 -21.613281 8.734375 -24.1875 C 8.773438 -24.78125 8.734375 -25.566406 8.609375 -26.546875 C 8.492188 -27.535156 8.285156 -28.535156 7.984375 -29.546875 C 7.691406 -30.554688 7.296875 -31.410156 6.796875 -32.109375 C 6.296875 -32.804688 5.6875 -33.179688 4.96875 -33.234375 C 4.382812 -33.222656 3.898438 -32.738281 3.515625 -31.78125 C 3.140625 -30.832031 2.847656 -29.582031 2.640625 -28.03125 C 2.441406 -26.488281 2.289062 -24.8125 2.1875 -23 C 2.082031 -21.1875 2.019531 -19.40625 2 -17.65625 C 1.988281 -15.90625 1.984375 -14.34375 1.984375 -12.96875 C 1.984375 -11.40625 1.96875 -10.320312 1.9375 -9.71875 Z M 1.9375 -9.71875 "/></g></g></g><g fill="#f8f7f2" fill-opacity="1"><g transform="translate(179.554505, 230.812367)"><g><path d="M 13.15625 -4.796875 C 12.25 -3.578125 11.378906 -2.789062 10.546875 -2.4375 C 9.722656 -2.09375 8.972656 -2.015625 8.296875 -2.203125 C 7.628906 -2.390625 7.050781 -2.679688 6.5625 -3.078125 C 6.082031 -3.472656 5.722656 -3.816406 5.484375 -4.109375 C 5.410156 -4.191406 5.34375 -4.257812 5.28125 -4.3125 C 6.863281 -1.414062 7.910156 1.148438 8.421875 3.390625 C 8.941406 5.628906 9.078125 7.484375 8.828125 8.953125 C 8.578125 10.421875 8.082031 11.457031 7.34375 12.0625 C 6.613281 12.664062 5.785156 12.796875 4.859375 12.453125 C 3.941406 12.109375 3.0625 11.234375 2.21875 9.828125 C 1.382812 8.429688 0.738281 6.457031 0.28125 3.90625 C -0.175781 1.351562 -0.296875 -1.816406 -0.078125 -5.609375 C 0.140625 -9.398438 0.828125 -13.863281 1.984375 -19 C 2.273438 -20.21875 2.679688 -21.640625 3.203125 -23.265625 C 3.734375 -24.890625 4.390625 -26.429688 5.171875 -27.890625 C 5.960938 -29.359375 6.90625 -30.492188 8 -31.296875 C 8.46875 -31.617188 8.988281 -31.835938 9.5625 -31.953125 C 11.019531 -32.203125 12.054688 -32.03125 12.671875 -31.4375 C 13.285156 -30.84375 13.570312 -29.960938 13.53125 -28.796875 C 13.5 -27.640625 13.226562 -26.304688 12.71875 -24.796875 C 12.207031 -23.296875 11.570312 -21.734375 10.8125 -20.109375 C 10.050781 -18.492188 9.25 -16.941406 8.40625 -15.453125 C 7.5625 -13.972656 6.789062 -12.671875 6.09375 -11.546875 C 5.394531 -10.429688 4.847656 -9.613281 4.453125 -9.09375 C 4.347656 -8.925781 4.234375 -8.753906 4.109375 -8.578125 C 4.035156 -8.492188 3.960938 -8.394531 3.890625 -8.28125 C 5.179688 -6.4375 6.316406 -5.175781 7.296875 -4.5 C 8.285156 -3.820312 9.140625 -3.519531 9.859375 -3.59375 C 10.585938 -3.675781 11.203125 -3.941406 11.703125 -4.390625 C 12.210938 -4.835938 12.625 -5.285156 12.9375 -5.734375 C 13.101562 -5.953125 13.25 -6.125 13.375 -6.25 C 13.5 -6.375 13.597656 -6.425781 13.671875 -6.40625 C 13.941406 -6.351562 14 -6.164062 13.84375 -5.84375 C 13.6875 -5.519531 13.457031 -5.171875 13.15625 -4.796875 Z M 2.625 -10.40625 C 2.5625 -9.882812 2.582031 -9.550781 2.6875 -9.40625 C 2.789062 -9.269531 3.019531 -9.460938 3.375 -9.984375 C 3.914062 -10.734375 4.585938 -11.757812 5.390625 -13.0625 C 6.203125 -14.375 7.039062 -15.828125 7.90625 -17.421875 C 8.769531 -19.015625 9.550781 -20.625 10.25 -22.25 C 10.945312 -23.875 11.445312 -25.390625 11.75 -26.796875 C 12.0625 -28.210938 12.054688 -29.390625 11.734375 -30.328125 C 11.597656 -30.734375 11.347656 -30.976562 10.984375 -31.0625 C 10.628906 -31.15625 10.242188 -31.09375 9.828125 -30.875 C 8.960938 -30.375 8.171875 -29.488281 7.453125 -28.21875 C 6.742188 -26.957031 6.109375 -25.488281 5.546875 -23.8125 C 4.992188 -22.132812 4.515625 -20.421875 4.109375 -18.671875 C 3.710938 -16.921875 3.390625 -15.316406 3.140625 -13.859375 C 2.890625 -12.398438 2.71875 -11.25 2.625 -10.40625 Z M 5.890625 11.5625 C 6.628906 11.238281 7.046875 10.492188 7.140625 9.328125 C 7.234375 8.160156 7.109375 6.769531 6.765625 5.15625 C 6.421875 3.550781 5.960938 1.921875 5.390625 0.265625 C 4.828125 -1.390625 4.253906 -2.867188 3.671875 -4.171875 C 3.085938 -5.484375 2.601562 -6.414062 2.21875 -6.96875 C 1.988281 -4.050781 1.984375 -1.429688 2.203125 0.890625 C 2.429688 3.210938 2.773438 5.1875 3.234375 6.8125 C 3.703125 8.4375 4.1875 9.65625 4.6875 10.46875 C 5.1875 11.28125 5.585938 11.644531 5.890625 11.5625 Z M 5.890625 11.5625 "/></g></g></g><g fill="#f8f7f2" fill-opacity="1"><g transform="translate(192.333275, 230.812367)"><g><path d="M 18.046875 -7.0625 C 18.191406 -7.25 18.34375 -7.390625 18.5 -7.484375 C 18.664062 -7.578125 18.765625 -7.578125 18.796875 -7.484375 C 18.828125 -7.390625 18.738281 -7.175781 18.53125 -6.84375 C 18.050781 -6.125 17.34375 -5.441406 16.40625 -4.796875 C 15.476562 -4.148438 14.453125 -3.597656 13.328125 -3.140625 C 12.203125 -2.691406 11.097656 -2.394531 10.015625 -2.25 C 8.941406 -2.101562 8.03125 -2.171875 7.28125 -2.453125 C 6.539062 -2.742188 6.082031 -3.3125 5.90625 -4.15625 C 5.28125 -3.132812 4.535156 -2.335938 3.671875 -1.765625 C 2.816406 -1.191406 2.003906 -0.945312 1.234375 -1.03125 C 0.359375 -1.15625 -0.222656 -1.484375 -0.515625 -2.015625 C -0.816406 -2.554688 -0.914062 -3.175781 -0.8125 -3.875 C -0.71875 -4.582031 -0.507812 -5.25 -0.1875 -5.875 C 0.0625 -6.351562 0.410156 -6.800781 0.859375 -7.21875 C 1.304688 -7.632812 1.773438 -7.953125 2.265625 -8.171875 C 2.867188 -8.484375 3.476562 -8.625 4.09375 -8.59375 C 4.707031 -8.570312 5.363281 -8.375 6.0625 -8 C 6.0625 -8 6.070312 -8.015625 6.09375 -8.046875 C 6.09375 -8.117188 6.101562 -8.203125 6.125 -8.296875 C 6.15625 -8.398438 6.21875 -8.488281 6.3125 -8.5625 C 6.4375 -8.644531 6.59375 -8.710938 6.78125 -8.765625 C 6.96875 -8.816406 7.15625 -8.828125 7.34375 -8.796875 C 7.625 -8.742188 7.796875 -8.597656 7.859375 -8.359375 C 7.929688 -8.128906 7.945312 -7.875 7.90625 -7.59375 C 7.863281 -7.320312 7.816406 -7.085938 7.765625 -6.890625 C 7.742188 -6.859375 7.734375 -6.820312 7.734375 -6.78125 C 7.441406 -5.601562 7.546875 -4.773438 8.046875 -4.296875 C 8.554688 -3.828125 9.289062 -3.609375 10.25 -3.640625 C 11.207031 -3.679688 12.222656 -3.882812 13.296875 -4.25 C 14.367188 -4.613281 15.34375 -5.050781 16.21875 -5.5625 C 17.101562 -6.070312 17.710938 -6.570312 18.046875 -7.0625 Z M 1.59375 -2.625 C 1.96875 -2.375 2.367188 -2.398438 2.796875 -2.703125 C 3.222656 -3.003906 3.640625 -3.441406 4.046875 -4.015625 C 4.460938 -4.597656 4.804688 -5.171875 5.078125 -5.734375 C 5.347656 -6.304688 5.5 -6.738281 5.53125 -7.03125 C 4.675781 -7.5 3.941406 -7.582031 3.328125 -7.28125 C 2.722656 -6.988281 2.25 -6.515625 1.90625 -5.859375 C 1.5625 -5.210938 1.363281 -4.566406 1.3125 -3.921875 C 1.257812 -3.285156 1.351562 -2.851562 1.59375 -2.625 Z M 1.59375 -2.625 "/></g></g></g><g fill="#f8f7f2" fill-opacity="1"><g transform="translate(209.786601, 230.812367)"><g><path d="M 16.609375 -7.640625 C 16.722656 -7.609375 16.71875 -7.4375 16.59375 -7.125 C 16.46875 -6.8125 16.210938 -6.410156 15.828125 -5.921875 C 15.378906 -5.410156 14.632812 -4.828125 13.59375 -4.171875 C 12.550781 -3.523438 11.347656 -2.929688 9.984375 -2.390625 C 8.628906 -1.859375 7.257812 -1.476562 5.875 -1.25 C 4.5 -1.03125 3.238281 -1.085938 2.09375 -1.421875 C 0.894531 -1.796875 0.207031 -2.578125 0.03125 -3.765625 C -0.0625 -4.453125 -0.0195312 -5.125 0.15625 -5.78125 C 0.375 -6.46875 0.71875 -7.070312 1.1875 -7.59375 C 1.664062 -8.113281 2.253906 -8.507812 2.953125 -8.78125 C 3.609375 -9.007812 4.289062 -9.09375 5 -9.03125 C 5.707031 -8.976562 6.285156 -8.769531 6.734375 -8.40625 C 6.804688 -8.34375 6.84375 -8.257812 6.84375 -8.15625 C 6.84375 -8.050781 6.828125 -7.945312 6.796875 -7.84375 C 6.710938 -7.53125 6.566406 -7.382812 6.359375 -7.40625 C 6.148438 -7.425781 5.910156 -7.503906 5.640625 -7.640625 C 5.441406 -7.742188 5.226562 -7.835938 5 -7.921875 C 4.769531 -8.003906 4.523438 -8.03125 4.265625 -8 C 3.566406 -7.894531 2.988281 -7.523438 2.53125 -6.890625 C 2.15625 -6.367188 1.898438 -5.796875 1.765625 -5.171875 C 1.628906 -4.546875 1.679688 -3.984375 1.921875 -3.484375 C 2.265625 -2.835938 2.863281 -2.453125 3.71875 -2.328125 C 4.582031 -2.203125 5.570312 -2.265625 6.6875 -2.515625 C 7.8125 -2.765625 8.945312 -3.125 10.09375 -3.59375 C 11.238281 -4.070312 12.289062 -4.570312 13.25 -5.09375 C 14.207031 -5.625 14.945312 -6.113281 15.46875 -6.5625 C 16 -7.03125 16.3125 -7.335938 16.40625 -7.484375 C 16.457031 -7.535156 16.492188 -7.570312 16.515625 -7.59375 C 16.546875 -7.625 16.578125 -7.640625 16.609375 -7.640625 Z M 16.609375 -7.640625 "/></g></g></g><g fill="#f8f7f2" fill-opacity="1"><g transform="translate(224.60362, 230.812367)"><g><path d="M 6 -14.171875 C 6.101562 -14.148438 6.171875 -14.070312 6.203125 -13.9375 C 6.242188 -13.8125 6.242188 -13.675781 6.203125 -13.53125 C 6.171875 -13.382812 6.101562 -13.3125 6 -13.3125 L 2.046875 -13.34375 L 2.046875 -13.234375 C 2.035156 -12.648438 2 -11.957031 1.9375 -11.15625 C 1.851562 -9.457031 1.8125 -7.734375 1.8125 -5.984375 C 1.8125 -5.390625 1.847656 -4.566406 1.921875 -3.515625 C 2.003906 -2.472656 2.171875 -1.539062 2.421875 -0.71875 C 2.441406 -0.664062 2.5 -0.566406 2.59375 -0.421875 C 2.695312 -0.234375 2.796875 -0.03125 2.890625 0.1875 C 2.992188 0.414062 3.039062 0.597656 3.03125 0.734375 C 3.019531 0.878906 2.910156 0.921875 2.703125 0.859375 C 1.992188 0.640625 1.457031 0.0859375 1.09375 -0.796875 C 0.726562 -1.691406 0.46875 -2.726562 0.3125 -3.90625 C 0.15625 -5.09375 0.0703125 -6.25 0.0625 -7.375 C 0.0625 -8.5 0.078125 -9.414062 0.109375 -10.125 C 0.128906 -10.601562 0.148438 -11.082031 0.171875 -11.5625 C 0.191406 -12.164062 0.207031 -12.765625 0.21875 -13.359375 L -2.765625 -13.421875 C -3.015625 -13.421875 -3.15625 -13.46875 -3.1875 -13.5625 C -3.226562 -13.65625 -3.203125 -13.753906 -3.109375 -13.859375 C -3.023438 -13.960938 -2.910156 -14.019531 -2.765625 -14.03125 L 0.25 -14.09375 L 0.4375 -16.96875 C 0.46875 -17.425781 0.503906 -17.898438 0.546875 -18.390625 C 0.546875 -18.640625 0.554688 -18.890625 0.578125 -19.140625 C 0.578125 -19.515625 0.664062 -19.863281 0.84375 -20.1875 C 1.050781 -20.476562 1.3125 -20.585938 1.625 -20.515625 C 1.894531 -20.421875 2.046875 -20.234375 2.078125 -19.953125 C 2.109375 -19.484375 2.125 -19.015625 2.125 -18.546875 C 2.125 -18.273438 2.125 -18.003906 2.125 -17.734375 C 2.125 -17.429688 2.125 -17.128906 2.125 -16.828125 L 2.046875 -14.109375 Z M 6 -14.171875 "/></g></g></g><g fill="#f8f7f2" fill-opacity="1"><g transform="translate(229.034086, 230.812367)"><g><path d="M 3.140625 -8.9375 C 4.191406 -8.988281 4.921875 -8.492188 5.328125 -7.453125 C 5.609375 -6.703125 5.6875 -5.894531 5.5625 -5.03125 C 5.4375 -4.175781 5.148438 -3.460938 4.703125 -2.890625 C 4.265625 -2.367188 3.738281 -2.03125 3.125 -1.875 C 2.507812 -1.726562 1.90625 -1.78125 1.3125 -2.03125 C 0.71875 -2.28125 0.253906 -2.769531 -0.078125 -3.5 C -0.347656 -4.15625 -0.441406 -4.8125 -0.359375 -5.46875 C -0.285156 -6.019531 -0.128906 -6.554688 0.109375 -7.078125 C 0.378906 -7.722656 0.773438 -8.1875 1.296875 -8.46875 C 1.828125 -8.757812 2.441406 -8.914062 3.140625 -8.9375 Z M 2.65625 -2.765625 C 3.101562 -3.023438 3.425781 -3.410156 3.625 -3.921875 C 3.820312 -4.429688 3.929688 -4.976562 3.953125 -5.5625 C 3.972656 -6.144531 3.925781 -6.6875 3.8125 -7.1875 C 3.65625 -7.882812 3.445312 -8.226562 3.1875 -8.21875 C 2.925781 -8.207031 2.65625 -7.972656 2.375 -7.515625 C 2.101562 -7.066406 1.863281 -6.519531 1.65625 -5.875 C 1.445312 -5.226562 1.316406 -4.609375 1.265625 -4.015625 C 1.222656 -3.429688 1.304688 -3.003906 1.515625 -2.734375 C 1.722656 -2.460938 2.101562 -2.472656 2.65625 -2.765625 Z M 2.65625 -2.765625 "/></g></g></g><g fill="#f8f7f2" fill-opacity="1"><g transform="translate(235.588243, 230.812367)"><g><path d="M 7.78125 -5.84375 C 7.9375 -6.164062 8.039062 -6.3125 8.09375 -6.28125 C 8.15625 -6.257812 8.171875 -6.128906 8.140625 -5.890625 C 8.117188 -5.660156 8.070312 -5.398438 8 -5.109375 C 7.894531 -4.660156 7.710938 -4.140625 7.453125 -3.546875 C 7.191406 -2.960938 6.898438 -2.429688 6.578125 -1.953125 C 6.109375 -1.285156 5.523438 -0.78125 4.828125 -0.4375 C 4.128906 -0.101562 3.5 -0.0195312 2.9375 -0.1875 C 2.375 -0.363281 2.046875 -0.898438 1.953125 -1.796875 C 1.929688 -2.546875 2 -3.367188 2.15625 -4.265625 C 2.195312 -4.640625 2.25 -5.003906 2.3125 -5.359375 C 2.3125 -5.484375 2.273438 -5.582031 2.203125 -5.65625 C 2.140625 -5.726562 2.054688 -5.753906 1.953125 -5.734375 C 1.878906 -5.734375 1.796875 -5.734375 1.703125 -5.734375 C 1.253906 -5.660156 0.800781 -5.671875 0.34375 -5.765625 C -0.207031 -5.921875 -0.523438 -6.191406 -0.609375 -6.578125 C -0.703125 -6.972656 -0.695312 -7.484375 -0.59375 -8.109375 C -0.539062 -8.554688 -0.375 -8.890625 -0.09375 -9.109375 C 0.175781 -9.335938 0.5 -9.429688 0.875 -9.390625 C 1.394531 -9.335938 1.644531 -9.132812 1.625 -8.78125 C 1.613281 -8.4375 1.519531 -8.066406 1.34375 -7.671875 C 1.175781 -7.335938 1.085938 -7.054688 1.078125 -6.828125 C 1.078125 -6.609375 1.269531 -6.53125 1.65625 -6.59375 C 1.75 -6.613281 1.847656 -6.640625 1.953125 -6.671875 C 2.097656 -6.734375 2.265625 -6.785156 2.453125 -6.828125 C 2.640625 -6.867188 2.882812 -6.878906 3.1875 -6.859375 C 3.539062 -6.847656 3.773438 -6.679688 3.890625 -6.359375 C 4.015625 -6.046875 4.066406 -5.65625 4.046875 -5.1875 C 4.035156 -4.71875 3.992188 -4.238281 3.921875 -3.75 C 3.828125 -3.132812 3.78125 -2.609375 3.78125 -2.171875 C 3.78125 -1.742188 3.90625 -1.492188 4.15625 -1.421875 C 4.488281 -1.328125 4.988281 -1.628906 5.65625 -2.328125 C 6.320312 -3.023438 7.03125 -4.195312 7.78125 -5.84375 Z M 7.78125 -5.84375 "/></g></g></g><g fill="#f8f7f2" fill-opacity="1"><g transform="translate(243.057778, 230.812367)"><g><path d="M 6.984375 -8.0625 C 7.359375 -8.101562 7.617188 -8.035156 7.765625 -7.859375 C 7.890625 -7.660156 7.941406 -6.976562 7.921875 -5.8125 C 7.898438 -4.65625 7.84375 -3.304688 7.75 -1.765625 C 7.65625 -0.222656 7.546875 1.203125 7.421875 2.515625 C 7.296875 3.835938 7.191406 4.757812 7.109375 5.28125 C 6.585938 8.257812 5.65625 10.75 4.3125 12.75 C 2.976562 14.757812 1.445312 16.3125 -0.28125 17.40625 C -2.007812 18.507812 -3.707031 19.175781 -5.375 19.40625 C -7.050781 19.632812 -8.472656 19.46875 -9.640625 18.90625 C -10.816406 18.351562 -11.515625 17.425781 -11.734375 16.125 C -11.960938 14.832031 -11.492188 13.203125 -10.328125 11.234375 C -9.171875 9.265625 -7.097656 6.992188 -4.109375 4.421875 C -2.921875 3.429688 -1.273438 2.238281 0.828125 0.84375 C 2.929688 -0.550781 4.597656 -1.5 5.828125 -2 C 5.847656 -2.238281 5.867188 -2.492188 5.890625 -2.765625 C 5.378906 -2.179688 4.859375 -1.84375 4.328125 -1.75 C 3.804688 -1.664062 3.320312 -1.660156 2.875 -1.734375 C 2.832031 -1.734375 2.804688 -1.734375 2.796875 -1.734375 C 1.992188 -1.835938 1.363281 -2.207031 0.90625 -2.84375 C 0.445312 -3.488281 0.15625 -4.21875 0.03125 -5.03125 C -0.09375 -5.84375 -0.0625 -6.566406 0.125 -7.203125 C 0.320312 -7.847656 0.691406 -8.238281 1.234375 -8.375 C 1.453125 -8.40625 1.695312 -8.425781 1.96875 -8.4375 C 2.238281 -8.445312 2.460938 -8.414062 2.640625 -8.34375 C 2.816406 -8.269531 2.882812 -8.125 2.84375 -7.90625 C 2.664062 -7.269531 2.5625 -6.5625 2.53125 -5.78125 C 2.507812 -5 2.578125 -4.316406 2.734375 -3.734375 C 2.898438 -3.160156 3.1875 -2.847656 3.59375 -2.796875 C 4.007812 -2.753906 4.566406 -3.132812 5.265625 -3.9375 C 5.585938 -4.34375 5.8125 -4.78125 5.9375 -5.25 C 5.9375 -5.75 5.925781 -6.222656 5.90625 -6.671875 C 5.894531 -7.085938 5.890625 -7.441406 5.890625 -7.734375 C 5.972656 -7.867188 6.113281 -7.957031 6.3125 -8 C 6.519531 -8.039062 6.707031 -8.0625 6.875 -8.0625 C 6.914062 -8.0625 6.953125 -8.0625 6.984375 -8.0625 Z M 5.78125 0.140625 C 5.78125 0.128906 5.78125 0.109375 5.78125 0.078125 C 5.789062 -0.0234375 5.800781 -0.160156 5.8125 -0.328125 C 5.820312 -0.503906 5.804688 -0.640625 5.765625 -0.734375 C 5.734375 -0.828125 5.660156 -0.835938 5.546875 -0.765625 C 5.429688 -0.679688 5.289062 -0.582031 5.125 -0.46875 C 4.09375 0.226562 2.738281 1.203125 1.0625 2.453125 C -0.613281 3.703125 -2.296875 5.117188 -3.984375 6.703125 C -4.316406 7.015625 -4.789062 7.488281 -5.40625 8.125 C -6.019531 8.757812 -6.664062 9.484375 -7.34375 10.296875 C -8.03125 11.117188 -8.628906 11.960938 -9.140625 12.828125 C -9.648438 13.703125 -9.96875 14.519531 -10.09375 15.28125 C -10.226562 16.050781 -10.054688 16.710938 -9.578125 17.265625 C -8.953125 17.941406 -8.046875 18.234375 -6.859375 18.140625 C -5.671875 18.046875 -4.367188 17.597656 -2.953125 16.796875 C -1.535156 15.992188 -0.175781 14.832031 1.125 13.3125 C 2.4375 11.800781 3.519531 9.941406 4.375 7.734375 C 5.238281 5.535156 5.707031 3.003906 5.78125 0.140625 Z M 5.78125 0.140625 "/></g></g></g><g fill="#f8f7f2" fill-opacity="1"><g transform="translate(252.907318, 230.812367)"><g><path d="M 3.140625 -8.9375 C 4.191406 -8.988281 4.921875 -8.492188 5.328125 -7.453125 C 5.609375 -6.703125 5.6875 -5.894531 5.5625 -5.03125 C 5.4375 -4.175781 5.148438 -3.460938 4.703125 -2.890625 C 4.265625 -2.367188 3.738281 -2.03125 3.125 -1.875 C 2.507812 -1.726562 1.90625 -1.78125 1.3125 -2.03125 C 0.71875 -2.28125 0.253906 -2.769531 -0.078125 -3.5 C -0.347656 -4.15625 -0.441406 -4.8125 -0.359375 -5.46875 C -0.285156 -6.019531 -0.128906 -6.554688 0.109375 -7.078125 C 0.378906 -7.722656 0.773438 -8.1875 1.296875 -8.46875 C 1.828125 -8.757812 2.441406 -8.914062 3.140625 -8.9375 Z M 2.65625 -2.765625 C 3.101562 -3.023438 3.425781 -3.410156 3.625 -3.921875 C 3.820312 -4.429688 3.929688 -4.976562 3.953125 -5.5625 C 3.972656 -6.144531 3.925781 -6.6875 3.8125 -7.1875 C 3.65625 -7.882812 3.445312 -8.226562 3.1875 -8.21875 C 2.925781 -8.207031 2.65625 -7.972656 2.375 -7.515625 C 2.101562 -7.066406 1.863281 -6.519531 1.65625 -5.875 C 1.445312 -5.226562 1.316406 -4.609375 1.265625 -4.015625 C 1.222656 -3.429688 1.304688 -3.003906 1.515625 -2.734375 C 1.722656 -2.460938 2.101562 -2.472656 2.65625 -2.765625 Z M 2.65625 -2.765625 "/></g></g></g></svg>